<?xml version="1.0" encoding="utf-8"?>
<!-- Generator: Adobe Illustrator 24.0.2, SVG Export Plug-In . SVG Version: 6.00 Build 0)  -->
<svg version="1.1" id="Layer_1" xmlns="http://www.w3.org/2000/svg" xmlns:xlink="http://www.w3.org/1999/xlink" x="0px" y="0px"
	 viewBox="0 0 315.38 89.96" style="enable-background:new 0 0 315.38 89.96;" xml:space="preserve">
<style type="text/css">
	.st0{fill:#395523;}
</style>
<g>
	<path class="st0" d="M54.84,76.91c-1.74,0-3.23,1.34-3.23,3.17c0,1.78,1.5,3.15,3.23,3.15c1.78,0,3.21-1.34,3.21-3.15
		C58.06,78.25,56.63,76.91,54.84,76.91z"/>
	<polygon class="st0" points="85.07,71.48 82.74,71.48 82.74,83.91 77.33,83.91 77.33,71.48 75,71.48 75,83.91 69.58,83.91 
		69.58,71.48 67.25,71.48 67.25,86 84.66,86 84.66,89.1 86.92,89.1 86.92,83.91 85.07,83.91 	"/>
	<path class="st0" d="M93.34,74.95c-1.87,0-3.48,0.75-4.55,2.31l1.34,1.36c0.9-1.08,1.78-1.61,2.99-1.61c1.47,0,2.31,0.81,2.31,2.31
		v0.7h-3.06c-2.44,0-3.98,1.21-3.98,3.08c0,1.87,1.5,3.13,3.76,3.13c1.47,0,2.66-0.51,3.45-1.45V86h2.16v-6.54
		C97.77,76.56,96.01,74.95,93.34,74.95z M95.44,81.91c0,1.47-1.23,2.55-2.79,2.55c-1.12,0-1.89-0.53-1.89-1.43
		c0-0.88,0.68-1.32,1.91-1.32h2.77V81.91z"/>
	<path class="st0" d="M106.04,77.09c1.17,0,2.13,0.55,2.9,1.65l1.63-1.28c-0.95-1.56-2.55-2.51-4.55-2.51
		c-3.1-0.04-5.79,2.53-5.72,5.63c0,3.15,2.53,5.66,5.72,5.66c1.96,0,3.59-0.95,4.55-2.51l-1.63-1.25c-0.79,1.08-1.76,1.63-2.9,1.63
		c-1.94,0-3.39-1.54-3.39-3.52C102.65,78.63,104.1,77.09,106.04,77.09z"/>
	<polygon class="st0" points="111.82,77.2 115.3,77.2 115.3,86 117.61,86 117.61,77.2 121.09,77.2 121.09,75.2 111.82,75.2 	"/>
	<path class="st0" d="M122.82,78.78c0,1.56,0.9,2.73,2.42,3.28l-3.1,3.94h2.66l2.79-3.63h1.61V86h2.31V75.2h-4.6
		C124.43,75.2,122.82,76.6,122.82,78.78z M129.2,77.2v3.21h-2.16c-1.14,0-1.85-0.62-1.85-1.61s0.68-1.61,1.83-1.61H129.2z"/>
	<rect x="141.04" y="75.2" class="st0" width="2.31" height="10.8"/>
	<path class="st0" d="M142.07,71.17c0-0.9-0.53-1.54-1.3-1.54s-1.3,0.64-1.3,1.54s0.53,1.52,1.3,1.52S142.07,72.07,142.07,71.17z"/>
	<path class="st0" d="M143.66,69.63c-0.77,0-1.3,0.64-1.3,1.54s0.53,1.52,1.3,1.52s1.3-0.62,1.3-1.52S144.43,69.63,143.66,69.63z"/>
	<path class="st0" d="M151.75,77.09c1.17,0,2.13,0.55,2.9,1.65l1.63-1.28c-0.95-1.56-2.55-2.51-4.55-2.51
		c-3.1-0.04-5.79,2.53-5.72,5.63c0,3.15,2.53,5.66,5.72,5.66c1.96,0,3.59-0.95,4.55-2.51l-1.63-1.25c-0.79,1.08-1.76,1.63-2.9,1.63
		c-1.94,0-3.39-1.54-3.39-3.52C148.36,78.63,149.82,77.09,151.75,77.09z"/>
	<polygon class="st0" points="157.54,77.2 161.02,77.2 161.02,86 163.33,86 163.33,77.2 166.8,77.2 166.8,75.2 157.54,75.2 	"/>
	<polygon class="st0" points="171.2,81.95 171.2,75.2 168.87,75.2 168.87,86.24 169.68,86.24 175.98,79.29 175.98,86 178.31,86 
		178.31,74.95 177.52,74.95 	"/>
	<path class="st0" d="M193.75,74.95c-1.58,0-2.97,0.64-3.76,1.76V75.2h-2.16v14.76h2.31v-5.28c0.86,0.99,2.13,1.56,3.61,1.56
		c3.06,0,5.3-2.42,5.3-5.66C199.05,77.4,196.81,74.95,193.75,74.95z M193.38,84.13c-1.69,0-3.26-1.17-3.26-3.54
		c0-2.35,1.56-3.52,3.26-3.52c1.87,0,3.3,1.47,3.3,3.54S195.23,84.13,193.38,84.13z"/>
	<path class="st0" d="M205.87,74.95c-1.87,0-3.48,0.75-4.55,2.31l1.34,1.36c0.9-1.08,1.78-1.61,2.99-1.61
		c1.47,0,2.31,0.81,2.31,2.31v0.7h-3.06c-2.44,0-3.98,1.21-3.98,3.08c0,1.87,1.5,3.13,3.76,3.13c1.47,0,2.66-0.51,3.45-1.45V86h2.16
		v-6.54C210.29,76.56,208.53,74.95,205.87,74.95z M207.96,81.91c0,1.47-1.23,2.55-2.79,2.55c-1.12,0-1.89-0.53-1.89-1.43
		c0-0.88,0.68-1.32,1.91-1.32h2.77V81.91z"/>
	<path class="st0" d="M219.67,80.3c0.77-0.53,1.17-1.32,1.17-2.29c0-1.94-1.43-3.06-3.78-3.06c-1.78,0-3.26,0.73-4.16,1.87
		l1.41,1.39c0.68-0.77,1.43-1.21,2.64-1.21c1.03,0,1.63,0.48,1.63,1.21c0,0.77-0.55,1.23-1.54,1.23h-1.19v1.85h1.25
		c1.25,0,1.96,0.55,1.96,1.41c0,0.9-0.75,1.5-2.07,1.5c-1.3,0-2.18-0.53-2.88-1.39l-1.41,1.39c1.03,1.36,2.51,2.05,4.4,2.05
		c2.64,0,4.25-1.25,4.25-3.39C221.34,81.77,220.74,80.83,219.67,80.3z"/>
	<path class="st0" d="M229.06,74.95c-3.1-0.04-5.76,2.53-5.7,5.63c-0.07,3.06,2.6,5.72,5.7,5.66c3.15,0.07,5.81-2.6,5.74-5.66
		C234.87,77.53,232.21,74.89,229.06,74.95z M229.06,84.11c-1.89,0-3.34-1.5-3.34-3.5s1.45-3.54,3.37-3.54
		c1.87,0,3.34,1.54,3.34,3.54C232.43,82.57,230.97,84.11,229.06,84.11z"/>
	<polygon class="st0" points="243.36,80.83 238.28,74.95 237.46,74.95 237.46,86 239.8,86 239.8,79.77 242.94,83.42 243.76,83.42 
		246.92,79.75 246.92,86 249.23,86 249.23,74.95 248.46,74.95 	"/>
	<path class="st0" d="M261.51,76.91c-1.74,0-3.23,1.34-3.23,3.17c0,1.78,1.5,3.15,3.23,3.15c1.78,0,3.21-1.34,3.21-3.15
		C264.72,78.25,263.29,76.91,261.51,76.91z"/>
	<path class="st0" d="M13.98,12.19H0v1.63c0,0.87,0.15,1.56,0.46,2.08c0.3,0.52,0.67,0.91,1.1,1.17c0.56,0.3,0.85,0.78,0.85,1.43
		v36.08c0,0.43-0.06,0.74-0.16,0.91C2.13,55.66,1.97,55.83,1.76,56c-0.35,0.26-0.69,0.63-1.04,1.1c-0.35,0.48-0.52,1.08-0.52,1.82
		v1.88h10.85v-1.88c0-0.74-0.17-1.34-0.52-1.82c-0.35-0.48-0.69-0.84-1.04-1.1C9.27,55.83,9.11,55.66,9,55.48
		C8.89,55.31,8.84,55,8.84,54.57V41.05c0-0.52,0.3-0.78,0.91-0.78h4.23c3.68,0,6.33-0.92,7.93-2.76c1.6-1.84,2.4-4.39,2.4-7.64
		v-7.08c0-3.25-0.8-5.83-2.4-7.73C20.3,13.15,17.66,12.19,13.98,12.19z M17.88,29.81c0,1.52-0.31,2.73-0.94,3.64
		c-0.63,0.91-1.61,1.37-2.96,1.37H9.69c-0.56,0-0.84-0.3-0.84-0.91V18.56c0-0.3,0.11-0.53,0.32-0.68c0.22-0.15,0.46-0.23,0.72-0.23
		h4.09c1.34,0,2.33,0.46,2.96,1.37c0.63,0.91,0.94,2.12,0.94,3.64V29.81z"/>
	<path class="st0" d="M47.71,12.19H27.1v1.88c0,0.87,0.12,1.54,0.36,2.02c0.24,0.48,0.57,0.82,1.01,1.04
		c0.22,0.13,0.41,0.3,0.58,0.52c0.17,0.22,0.26,0.52,0.26,0.91v35.95c0,0.61-0.28,1.06-0.84,1.36c-0.43,0.22-0.77,0.58-1.01,1.07
		c-0.24,0.5-0.36,1.22-0.36,2.18v1.69H31h12.68h4.03c0.48,0,0.88-0.15,1.2-0.46c0.33-0.3,0.49-0.69,0.49-1.17v-6.7h-2.47
		c-1,0-1.79,0.2-2.37,0.58c-0.58,0.39-0.88,0.93-0.88,1.63c0,0.56-0.24,0.85-0.71,0.85h-6.5c-0.52,0-0.78-0.3-0.78-0.91V39.49
		c0-0.61,0.33-0.91,0.98-0.91h7.8c0.65,0,0.98-0.3,0.98-0.91v-3.64c0-0.35-0.12-0.59-0.36-0.75c-0.24-0.15-0.47-0.23-0.68-0.23
		h-7.73c-0.65,0-0.98-0.3-0.98-0.91V18.56c0-0.26,0.1-0.49,0.29-0.68c0.2-0.2,0.4-0.29,0.62-0.29h6.24c0.35,0,0.58,0.12,0.72,0.36
		c0.13,0.24,0.19,0.49,0.19,0.75c0,0.74,0.31,1.22,0.94,1.46c0.63,0.24,1.4,0.36,2.31,0.36h2.4v-6.89c0-0.35-0.15-0.67-0.45-0.97
		C48.64,12.34,48.23,12.19,47.71,12.19z"/>
	<path class="st0" d="M73.58,58.96c1.08-0.8,1.95-1.82,2.6-3.05c0.65-1.24,0.98-2.68,0.98-4.32v-6.37c0-1.73-0.41-3.27-1.23-4.62
		c-0.82-1.34-1.84-2.56-3.06-3.64c-1.21-1.08-2.55-2.07-4-2.96c-1.45-0.89-2.78-1.73-4-2.54c-1.21-0.8-2.23-1.59-3.05-2.37
		c-0.82-0.78-1.23-1.6-1.23-2.47v-6.43c0-0.48,0.15-0.9,0.45-1.27c0.3-0.37,0.69-0.68,1.17-0.94c0.48-0.26,0.97-0.46,1.49-0.58
		s1.02-0.2,1.5-0.2c0.43,0,0.92,0.05,1.46,0.16c0.54,0.11,1.04,0.28,1.5,0.52c0.46,0.24,0.83,0.55,1.14,0.94
		c0.3,0.39,0.45,0.85,0.45,1.37v2.41c0,1.04,0.37,1.91,1.11,2.6c0.74,0.69,1.65,1.04,2.73,1.04h2.92v-4.81
		c0-1.65-0.28-3.09-0.85-4.32c-0.56-1.23-1.35-2.25-2.37-3.05c-1.02-0.8-2.21-1.41-3.58-1.82c-1.37-0.41-2.85-0.62-4.45-0.62
		c-1.6,0-3.08,0.18-4.42,0.55c-1.34,0.37-2.51,0.95-3.51,1.75c-1,0.8-1.78,1.82-2.34,3.05c-0.56,1.24-0.84,2.72-0.84,4.45v4.61
		c0,1.82,0.4,3.37,1.2,4.65c0.8,1.28,1.81,2.4,3.02,3.35c1.21,0.95,2.52,1.83,3.93,2.63c1.41,0.8,2.72,1.62,3.93,2.44
		c1.21,0.82,2.22,1.75,3.02,2.76c0.8,1.02,1.2,2.24,1.2,3.67v6.89c0,0.56-0.16,1.07-0.49,1.53c-0.32,0.46-0.75,0.84-1.27,1.17
		s-1.08,0.58-1.69,0.78c-0.61,0.19-1.19,0.29-1.75,0.29c-0.56,0-1.15-0.09-1.75-0.26c-0.61-0.17-1.16-0.41-1.66-0.71
		c-0.5-0.3-0.91-0.67-1.23-1.11c-0.32-0.43-0.49-0.93-0.49-1.5v-2.79c0-1-0.29-1.76-0.88-2.31c-0.58-0.54-1.46-0.81-2.63-0.81h-3.12
		v4.88c0,1.65,0.31,3.09,0.94,4.32c0.63,1.23,1.47,2.25,2.53,3.05c1.06,0.8,2.31,1.4,3.74,1.79c1.43,0.39,2.95,0.58,4.55,0.58
		c1.6,0,3.12-0.19,4.55-0.58C71.24,60.36,72.5,59.76,73.58,58.96z"/>
	<path class="st0" d="M97.89,56c-0.22-0.17-0.39-0.35-0.52-0.52c-0.13-0.17-0.2-0.48-0.2-0.91V18.63c0-0.39,0.1-0.67,0.29-0.85
		c0.19-0.17,0.42-0.26,0.68-0.26h3.19c0.48,0,0.71,0.28,0.71,0.84c0,0.69,0.17,1.25,0.52,1.66c0.35,0.41,0.82,0.62,1.43,0.62h3.51
		v-3.58v-2.01c0-1.08-0.2-1.85-0.59-2.31c-0.39-0.46-1.1-0.68-2.14-0.68H83.59c-1.13,0-1.96,0.21-2.5,0.62
		c-0.54,0.41-0.81,1.12-0.81,2.11v1.88v3.96h2.99c1.04,0,1.75-0.18,2.15-0.55c0.39-0.37,0.58-0.92,0.58-1.66
		c0-0.35,0.12-0.58,0.36-0.71c0.24-0.13,0.44-0.2,0.62-0.2h2.86c0.22,0,0.43,0.08,0.65,0.23c0.22,0.15,0.33,0.38,0.33,0.68v36.14
		c0,0.43-0.06,0.74-0.2,0.91c-0.13,0.17-0.28,0.35-0.45,0.52c-0.35,0.26-0.69,0.63-1.04,1.1c-0.35,0.48-0.52,1.08-0.52,1.82v1.88
		h10.79v-1.88c0-0.74-0.16-1.34-0.49-1.82C98.57,56.63,98.24,56.26,97.89,56z"/>
	<path class="st0" d="M130.16,14.04c-1.02-0.8-2.22-1.4-3.61-1.79c-1.39-0.39-2.88-0.58-4.48-0.58c-1.6,0-3.1,0.19-4.49,0.58
		c-1.39,0.39-2.6,0.99-3.64,1.79c-1.04,0.8-1.85,1.82-2.44,3.05c-0.58,1.24-0.88,2.68-0.88,4.32v30.16c0,1.65,0.29,3.09,0.88,4.32
		c0.58,1.23,1.4,2.26,2.44,3.09c1.04,0.82,2.25,1.43,3.64,1.82c1.39,0.39,2.88,0.58,4.49,0.58c1.6,0,3.1-0.2,4.48-0.58
		c1.39-0.39,2.59-1,3.61-1.82c1.02-0.82,1.82-1.85,2.4-3.09c0.59-1.24,0.88-2.68,0.88-4.32V21.42c0-1.65-0.29-3.09-0.88-4.32
		C131.98,15.86,131.18,14.85,130.16,14.04z M127.07,51.32c0,0.87-0.15,1.59-0.46,2.18c-0.3,0.58-0.69,1.06-1.17,1.43
		c-0.48,0.37-1.01,0.64-1.59,0.81c-0.58,0.17-1.18,0.26-1.79,0.26c-0.61,0-1.21-0.09-1.82-0.26c-0.61-0.17-1.15-0.44-1.63-0.81
		c-0.48-0.37-0.87-0.84-1.17-1.43c-0.3-0.58-0.46-1.31-0.46-2.18V21.68c0-0.87,0.15-1.59,0.46-2.18c0.3-0.58,0.69-1.06,1.17-1.43
		c0.48-0.37,1.02-0.64,1.63-0.81c0.61-0.17,1.21-0.26,1.82-0.26c0.61,0,1.2,0.09,1.79,0.26c0.58,0.17,1.12,0.44,1.59,0.81
		c0.48,0.37,0.87,0.84,1.17,1.43c0.3,0.58,0.46,1.31,0.46,2.18V51.32z"/>
	<path class="st0" d="M231.95,13.91c-1.02-0.8-2.21-1.4-3.58-1.79c-1.36-0.39-2.85-0.58-4.45-0.58c-1.6,0-3.1,0.19-4.48,0.58
		c-1.39,0.39-2.58,0.99-3.58,1.79c-1,0.8-1.79,1.82-2.37,3.05c-0.58,1.24-0.88,2.68-0.88,4.32v30.16c0,1.65,0.28,3.09,0.85,4.32
		c0.56,1.23,1.33,2.26,2.31,3.09c0.98,0.82,2.15,1.43,3.51,1.82c1.37,0.39,2.85,0.58,4.45,0.58c1.6,0,3.1-0.16,4.48-0.49
		c1.39-0.33,2.6-0.86,3.64-1.59c1.04-0.74,1.86-1.69,2.47-2.86c0.61-1.17,0.91-2.58,0.91-4.22v-5.46h-2.92
		c-1.17,0-2.05,0.36-2.63,1.07c-0.58,0.71-0.88,1.57-0.88,2.57v1.11c0,0.65-0.15,1.25-0.45,1.79c-0.3,0.54-0.69,1.02-1.17,1.43
		c-0.48,0.41-1.02,0.73-1.63,0.94c-0.61,0.22-1.21,0.32-1.82,0.32c-1.21,0-2.3-0.41-3.25-1.23c-0.95-0.82-1.43-1.91-1.43-3.25V21.68
		c0-1.73,0.51-2.97,1.53-3.71c1.02-0.74,2.13-1.11,3.35-1.11c1.21,0,2.33,0.37,3.35,1.11c1.02,0.74,1.53,1.97,1.53,3.71v0.91
		c0,1.04,0.34,1.9,1.01,2.57c0.67,0.67,1.55,1.01,2.63,1.01h2.79v-4.88c0-1.65-0.29-3.09-0.88-4.32
		C233.77,15.73,232.97,14.72,231.95,13.91z"/>
	<path class="st0" d="M264.35,55.94c-0.22-0.17-0.41-0.36-0.58-0.55c-0.17-0.19-0.3-0.46-0.39-0.81
		c-1.26-7.15-2.38-13.56-3.38-19.24c-0.43-2.43-0.86-4.81-1.27-7.15c-0.41-2.34-0.78-4.45-1.1-6.34c-0.33-1.88-0.6-3.43-0.81-4.65
		c-0.22-1.21-0.33-1.91-0.33-2.08c-0.09-0.78-0.43-1.46-1.04-2.05c-0.61-0.58-1.41-0.88-2.4-0.88h-8.71v1.5
		c0,1.86,0.54,3.01,1.63,3.45c0.22,0.09,0.32,0.27,0.32,0.55c0,0.28-0.02,0.6-0.06,0.94c0,0.04-0.1,0.58-0.29,1.63
		c-0.19,1.04-0.46,2.4-0.78,4.09c-0.33,1.69-0.68,3.61-1.07,5.75c-0.39,2.15-0.8,4.35-1.23,6.6c-1,5.24-2.1,11.2-3.31,17.88
		c-0.09,0.35-0.22,0.62-0.39,0.81c-0.17,0.2-0.37,0.38-0.58,0.55c-0.35,0.22-0.68,0.62-1.01,1.2c-0.33,0.58-0.49,1.25-0.49,1.98
		v1.69h10.85v-1.75c0-0.78-0.15-1.41-0.46-1.88c-0.3-0.48-0.63-0.82-0.97-1.04c-0.22-0.17-0.37-0.35-0.46-0.52
		c-0.09-0.17-0.13-0.46-0.13-0.84c0.09-0.82,0.17-1.58,0.26-2.28c0.09-0.61,0.14-1.18,0.16-1.72c0.02-0.54,0.05-0.92,0.1-1.14
		c0.09-0.87,0.48-1.3,1.17-1.3h7.41c0.39,0,0.72,0.09,0.98,0.26c0.26,0.17,0.43,0.52,0.52,1.04c0,0.22,0.04,0.6,0.13,1.14
		c0.09,0.54,0.17,1.12,0.26,1.72c0.13,0.69,0.24,1.45,0.32,2.28c0,0.39-0.08,0.67-0.23,0.84c-0.15,0.17-0.34,0.35-0.55,0.52
		c-0.35,0.22-0.67,0.56-0.98,1.04c-0.3,0.48-0.46,1.1-0.46,1.88v1.75h10.85v-1.82c0-0.74-0.16-1.38-0.49-1.92
		S264.7,56.15,264.35,55.94z M255.19,42.61c-0.17,0.22-0.41,0.33-0.72,0.33h-6.11c-0.26,0-0.48-0.1-0.65-0.29
		c-0.17-0.19-0.24-0.44-0.19-0.75c0-0.04,0.05-0.41,0.16-1.1c0.11-0.69,0.25-1.58,0.42-2.67c0.17-1.08,0.37-2.31,0.58-3.67
		c0.22-1.37,0.46-2.76,0.71-4.19l1.95-11.31h0.13l1.95,11.31c0.26,1.43,0.5,2.83,0.71,4.19c0.22,1.37,0.41,2.59,0.58,3.67
		c0.17,1.08,0.33,1.97,0.46,2.67s0.19,1.06,0.19,1.1C255.43,42.16,255.36,42.4,255.19,42.61z"/>
	<path class="st0" d="M289.38,12.61c-0.39-0.28-0.76-0.42-1.1-0.42h-20.6v1.75c0,1,0.13,1.73,0.39,2.21
		c0.26,0.48,0.61,0.82,1.04,1.04c0.52,0.22,0.78,0.67,0.78,1.37v36.01c0,0.43-0.06,0.74-0.19,0.91c-0.13,0.17-0.28,0.35-0.46,0.52
		c-0.35,0.26-0.69,0.63-1.04,1.1c-0.35,0.48-0.52,1.08-0.52,1.82v1.88h10.79v-1.88c0-0.74-0.16-1.34-0.49-1.82
		c-0.33-0.48-0.66-0.84-1.01-1.1c-0.22-0.17-0.39-0.35-0.52-0.52c-0.13-0.17-0.19-0.48-0.19-0.91V40.34c0-0.3,0.1-0.54,0.29-0.72
		c0.2-0.17,0.42-0.26,0.68-0.26h7.93c0.56,0,0.84-0.3,0.84-0.91v-3.44c0-0.65-0.3-0.98-0.91-0.98h-7.86c-0.35,0-0.6-0.06-0.75-0.19
		c-0.15-0.13-0.23-0.39-0.23-0.78V18.63c0-0.3,0.1-0.54,0.29-0.72c0.2-0.17,0.42-0.26,0.68-0.26h5.92c1,0,1.5,0.3,1.5,0.91
		c0,0.69,0.3,1.21,0.91,1.56c0.61,0.35,1.37,0.52,2.27,0.52h2.15v-6.83C289.96,13.3,289.77,12.9,289.38,12.61z"/>
	<path class="st0" d="M301.95,17.88c0.2-0.2,0.4-0.29,0.62-0.29h6.24c0.35,0,0.58,0.12,0.72,0.36c0.13,0.24,0.19,0.49,0.19,0.75
		c0,0.74,0.31,1.22,0.94,1.46c0.63,0.24,1.4,0.36,2.31,0.36h2.4v-6.89c0-0.35-0.15-0.67-0.45-0.97c-0.3-0.3-0.72-0.46-1.24-0.46
		h-20.6v1.88c0,0.87,0.12,1.54,0.36,2.02c0.24,0.48,0.57,0.82,1.01,1.04c0.22,0.13,0.41,0.3,0.58,0.52
		c0.17,0.22,0.26,0.52,0.26,0.91v35.95c0,0.61-0.28,1.06-0.84,1.36c-0.43,0.22-0.77,0.58-1.01,1.07c-0.24,0.5-0.36,1.22-0.36,2.18
		v1.69h3.9h12.68h4.03c0.48,0,0.88-0.15,1.2-0.46c0.33-0.3,0.49-0.69,0.49-1.17v-6.7h-2.47c-1,0-1.79,0.2-2.37,0.58
		c-0.58,0.39-0.88,0.93-0.88,1.63c0,0.56-0.24,0.85-0.71,0.85h-6.5c-0.52,0-0.78-0.3-0.78-0.91V39.49c0-0.61,0.33-0.91,0.98-0.91
		h7.8c0.65,0,0.98-0.3,0.98-0.91v-3.64c0-0.35-0.12-0.59-0.36-0.75c-0.24-0.15-0.47-0.23-0.68-0.23h-7.73
		c-0.65,0-0.98-0.3-0.98-0.91V18.56C301.66,18.3,301.76,18.07,301.95,17.88z"/>
	<path class="st0" d="M172.07,66.42c18.31,0,33.21-14.9,33.21-33.21C205.28,14.9,190.39,0,172.07,0s-33.21,14.9-33.21,33.21
		C138.87,51.52,153.76,66.42,172.07,66.42z M202.1,33.21c0,15.8-12.27,28.79-27.79,29.94c-2.11-3.57-3.22-7.62-3.22-11.81
		c0-0.23,0.01-0.45,0.02-0.68h0.14c0-3.15,2.56-5.71,5.71-5.72c1.62,6.5,19.1,6.15,19.09-1.01c-0.01-7.15-17.44-7.46-19.09-0.98
		c-1.86,0-3.56,0.66-4.9,1.76c2.86-9.6,11.76-16.62,22.28-16.62c2.59,0,5.11,0.42,7.52,1.25C202.01,30.61,202.1,31.9,202.1,33.21z
		 M187.2,41.02c0.29-1.89,5.12-1.14,4.83,0.75C191.73,43.66,186.9,42.91,187.2,41.02z M172.07,3.19c14.47,0,26.59,10.3,29.4,23.95
		c-2.31-0.68-4.7-1.03-7.15-1.03c-6.66,0-12.73,2.6-17.25,6.83c3.44-7.53,1.61-16.72-5.04-22.3c-6.53,7.78-5.7,19.29,1.74,26.07
		c-1.9,2.67-3.3,5.72-4.05,9.02c-2.27-10.67-11.74-18.67-23.08-18.67c0,12.65,9.96,22.98,22.46,23.57
		c-0.01,0.24-0.01,0.47-0.01,0.71c0,4.19,1.02,8.25,2.98,11.89c-16.55,0-30.02-13.47-30.02-30.02
		C142.05,16.65,155.52,3.19,172.07,3.19z"/>
</g>
</svg>
